<svg width="65" height="64" fill="none" xmlns="http://www.w3.org/2000/svg"><path d="M37.962 23.605H26.836a.254.254 0 0 0-.255.254v10.798c0 .14.114.254.255.254h11.126c.14 0 .255-.114.255-.254V23.86a.254.254 0 0 0-.255-.254Z" fill="#E0E0E0"/><path d="M37.962 23.605H26.836a.254.254 0 0 0-.255.254v10.798c0 .14.114.254.255.254h11.126c.14 0 .255-.114.255-.254V23.86a.254.254 0 0 0-.255-.254Z" fill="#000" fill-opacity=".1"/><path fill-rule="evenodd" clip-rule="evenodd" d="M37.962 23.805H26.836a.054.054 0 0 0-.055.054v10.798c0 .029.023.054.055.054h11.126a.054.054 0 0 0 .055-.054V23.86a.054.054 0 0 0-.055-.054Zm-11.126-.2h11.126c.14 0 .255.114.255.254v10.798c0 .14-.114.254-.255.254H26.836a.254.254 0 0 1-.255-.254V23.86c0-.14.114-.254.255-.254Z" fill="#000"/><path d="M37.965 23.861v10.796H26.85V23.86h11.114Zm0-.502H26.85a.507.507 0 0 0-.505.502v10.796a.5.5 0 0 0 .505.502h11.114a.506.506 0 0 0 .505-.502V23.86a.5.5 0 0 0-.505-.502Z" fill="#000"/><path d="M22.459 51.459a.253.253 0 0 1-.253-.251l-.568-18.627a.25.25 0 0 1 .252-.251h3.006a.253.253 0 0 1 .252.251v2.26h2.493v-2.26a.25.25 0 0 1 .253-.251H30.9a.253.253 0 0 1 .252.251v2.26h2.493v-2.26a.25.25 0 0 1 .253-.251h3.005a.253.253 0 0 1 .253.251v2.26h2.493v-2.26a.25.25 0 0 1 .252-.251h3.016a.254.254 0 0 1 .253.251l-.576 18.632a.25.25 0 0 1-.253.25L22.46 51.46Z" fill="#E0E0E0"/><path d="M22.459 51.459a.253.253 0 0 1-.253-.251l-.568-18.627a.25.25 0 0 1 .252-.251h3.006a.253.253 0 0 1 .252.251v2.26h2.493v-2.26a.25.25 0 0 1 .253-.251H30.9a.253.253 0 0 1 .252.251v2.26h2.493v-2.26a.25.25 0 0 1 .253-.251h3.005a.253.253 0 0 1 .253.251v2.26h2.493v-2.26a.25.25 0 0 1 .252-.251h3.016a.254.254 0 0 1 .253.251l-.576 18.632a.25.25 0 0 1-.253.25L22.46 51.46Z" fill="#000" fill-opacity=".1"/><path d="M44.254 25.91a.269.269 0 0 1-.253-.25l-.101-1.507a.285.285 0 0 1 .058-.183l4.996-5.958a.278.278 0 0 1 .204-.093.274.274 0 0 1 .205.093l4.993 5.953a.272.272 0 0 1 .054.236l-.36 1.506a.27.27 0 0 1-.252.203h-9.544Z" fill="#81635E"/><path fill-rule="evenodd" clip-rule="evenodd" d="M54.41 24.2a.273.273 0 0 0-.053-.235l-4.994-5.953a.273.273 0 0 0-.41 0l-4.995 5.958a.285.285 0 0 0-.058.183l.1 1.506a.265.265 0 0 0 .254.251h9.544a.274.274 0 0 0 .253-.203l.359-1.506Zm-.553 1.458.358-1.505a.072.072 0 0 0-.013-.062l-4.99-5.948a.073.073 0 0 0-.053-.024.079.079 0 0 0-.054.024l-4.99 5.95a.085.085 0 0 0-.015.05l.1 1.505a.068.068 0 0 0 .06.062h9.533a.073.073 0 0 0 .04-.016.07.07 0 0 0 .024-.036Z" fill="#000"/><path d="m49.149 18.182 4.993 5.953-.364 1.524h-9.524l-.101-1.506 4.993-5.956.003-.015Zm-.003-.487a.52.52 0 0 0-.399.186l-4.998 5.955a.518.518 0 0 0-.122.364l.099 1.507a.519.519 0 0 0 .528.484h9.527a.527.527 0 0 0 .505-.397l.364-1.506a.54.54 0 0 0-.106-.452l-4.986-5.955a.545.545 0 0 0-.402-.186h-.01Z" fill="#000"/><mask id="a" fill="#fff"><path d="M10.768 25.91a.268.268 0 0 1-.253-.25l-.101-1.507a.276.276 0 0 1 .066-.191l4.98-5.95a.267.267 0 0 1 .315-.069c.035.016.066.04.092.069l5.003 5.953a.275.275 0 0 1 .053.236l-.36 1.506a.27.27 0 0 1-.253.203h-9.542Z"/></mask><path d="M10.768 25.91a.268.268 0 0 1-.253-.25l-.101-1.507a.276.276 0 0 1 .066-.191l4.98-5.95a.267.267 0 0 1 .315-.069c.035.016.066.04.092.069l5.003 5.953a.275.275 0 0 1 .053.236l-.36 1.506a.27.27 0 0 1-.253.203h-9.542Z" fill="#81635E" stroke="#000" stroke-width=".4" mask="url(#a)"/><path d="m15.662 18.183 4.993 5.952-.36 1.507h-9.528l-.099-1.507h-.007l5-5.955v.003Zm0-.505a.518.518 0 0 0-.4.186l-4.993 5.96a.542.542 0 0 0-.113.359l.1 1.506a.516.516 0 0 0 .506.485h9.52a.53.53 0 0 0 .505-.4l.36-1.506a.54.54 0 0 0-.105-.444l-4.994-5.963a.546.546 0 0 0-.401-.186l.015.003Z" fill="#000"/><path d="M27.495 20.52a.274.274 0 0 1-.265-.25l-.099-1.507a.273.273 0 0 1 .058-.181l4.996-5.96a.271.271 0 0 1 .381-.028l.028.028 4.991 5.955a.276.276 0 0 1 .056.23l-.361 1.507a.274.274 0 0 1-.253.204l-9.532.002Z" fill="#81635E"/><path fill-rule="evenodd" clip-rule="evenodd" d="m27.498 20.32 9.522-.002a.076.076 0 0 0 .041-.017.073.073 0 0 0 .025-.036l.36-1.5a.074.074 0 0 0-.015-.061l-4.984-5.947-.015-.014a.072.072 0 0 0-.074-.007.068.068 0 0 0-.021.016l-4.992 5.955a.073.073 0 0 0-.014.045l.098 1.503a.07.07 0 0 0 .022.045c.012.012.03.02.047.02Zm-.268-.05a.27.27 0 0 0 .265.25l9.532-.002a.277.277 0 0 0 .252-.204l.362-1.506a.275.275 0 0 0-.056-.231l-4.99-5.955-.029-.028a.27.27 0 0 0-.381.028l-4.996 5.96a.273.273 0 0 0-.058.18l.099 1.507Z" fill="#000"/><path d="m32.383 12.777 4.99 5.955-.36 1.507h-9.518l-.1-1.507 4.988-5.955Zm0-.502a.538.538 0 0 0-.402.188l-4.976 5.953a.525.525 0 0 0-.12.366l.098 1.507a.516.516 0 0 0 .52.482h9.527a.528.528 0 0 0 .505-.397l.361-1.506a.521.521 0 0 0-.106-.452l-5-5.953a.52.52 0 0 0-.407-.188Z" fill="#000"/><path fill-rule="evenodd" clip-rule="evenodd" d="m42.341 51.464-19.882-.005a.253.253 0 0 1-.253-.251l-.568-18.627a.25.25 0 0 1 .252-.251h3.006a.253.253 0 0 1 .252.251v2.26h2.494v-2.26a.25.25 0 0 1 .252-.251H30.9a.253.253 0 0 1 .252.251v2.26h2.493v-2.26a.25.25 0 0 1 .253-.251h3.005a.253.253 0 0 1 .253.251v2.26h2.493v-2.26a.25.25 0 0 1 .252-.251h3.016a.253.253 0 0 1 .253.251l-.576 18.632a.25.25 0 0 1-.253.25ZM39.45 34.64v-2.06a.45.45 0 0 1 .453-.451h3.015a.454.454 0 0 1 .453.451v.006l-.576 18.63a.45.45 0 0 1-.453.447l-19.882-.005a.454.454 0 0 1-.453-.448l-.568-18.63a.45.45 0 0 1 .452-.451h3.006a.453.453 0 0 1 .453.451v2.06h2.093v-2.06a.45.45 0 0 1 .452-.451H30.9a.454.454 0 0 1 .452.451v2.06h2.093v-2.06a.45.45 0 0 1 .453-.451h3.005a.453.453 0 0 1 .453.451v2.06h2.093Z" fill="#000"/><path d="m42.918 32.578-.579 18.632H22.454l-.568-18.627h3.003v2.51h3.006v-2.51H30.9v2.51h2.998v-2.51h3.006v2.51h3.003v-2.51h3.006l.005-.005Zm-.005-.497h-3.006a.506.506 0 0 0-.505.502v2.009h-1.968v-2.009a.5.5 0 0 0-.505-.502h-3.005a.506.506 0 0 0-.506.502v2.009h-1.992v-2.009a.5.5 0 0 0-.506-.502h-3.005a.506.506 0 0 0-.505.502v2.009h-1.983v-2.009a.5.5 0 0 0-.505-.502H21.89a.509.509 0 0 0-.473.324.498.498 0 0 0-.032.198l.576 18.617a.5.5 0 0 0 .505.502h19.885a.507.507 0 0 0 .505-.502l.569-18.61v-.042a.5.5 0 0 0-.506-.502l-.007.015Z" fill="#000"/><mask id="b" maskUnits="userSpaceOnUse" x="7.645" y="22.186" width="16" height="30" fill="#000"><path fill="#fff" d="M7.645 22.186h16v30h-16z"/><path d="M8.905 51.464a.254.254 0 0 1-.252-.284l.954-21.755-.914-1.268a.272.272 0 0 1-.048-.15v-4.57a.25.25 0 0 1 .253-.251h2.707a.253.253 0 0 1 .253.251v2.41h2.2v-2.41a.25.25 0 0 1 .252-.251h2.71a.255.255 0 0 1 .256.254v2.41h2.202v-2.41a.25.25 0 0 1 .253-.251h2.727a.253.253 0 0 1 .253.25v4.563a.25.25 0 0 1-.05.15l-.912 1.273.962 21.765a.249.249 0 0 1-.137.245.256.256 0 0 1-.095.026H8.905v.003Z"/></mask><path d="M8.905 51.464a.254.254 0 0 1-.252-.284l.954-21.755-.914-1.268a.272.272 0 0 1-.048-.15v-4.57a.25.25 0 0 1 .253-.251h2.707a.253.253 0 0 1 .253.251v2.41h2.2v-2.41a.25.25 0 0 1 .252-.251h2.71a.255.255 0 0 1 .256.254v2.41h2.202v-2.41a.25.25 0 0 1 .253-.251h2.727a.253.253 0 0 1 .253.25v4.563a.25.25 0 0 1-.05.15l-.912 1.273.962 21.765a.249.249 0 0 1-.137.245.256.256 0 0 1-.095.026H8.905v.003Z" fill="#E0E0E0"/><path d="M8.905 51.464a.254.254 0 0 1-.252-.284l.954-21.755-.914-1.268a.272.272 0 0 1-.048-.15v-4.57a.25.25 0 0 1 .253-.251h2.707a.253.253 0 0 1 .253.251v2.41h2.2v-2.41a.25.25 0 0 1 .252-.251h2.71a.255.255 0 0 1 .256.254v2.41h2.202v-2.41a.25.25 0 0 1 .253-.251h2.727a.253.253 0 0 1 .253.25v4.563a.25.25 0 0 1-.05.15l-.912 1.273.962 21.765a.249.249 0 0 1-.137.245.256.256 0 0 1-.095.026H8.905v.003Z" fill="#000" fill-opacity=".05"/><path d="M8.905 51.464a.254.254 0 0 1-.252-.284l.954-21.755-.914-1.268a.272.272 0 0 1-.048-.15v-4.57a.25.25 0 0 1 .253-.251h2.707a.253.253 0 0 1 .253.251v2.41h2.2v-2.41a.25.25 0 0 1 .252-.251h2.71a.255.255 0 0 1 .256.254v2.41h2.202v-2.41a.25.25 0 0 1 .253-.251h2.727a.253.253 0 0 1 .253.25v4.563a.25.25 0 0 1-.05.15l-.912 1.273.962 21.765a.249.249 0 0 1-.137.245.256.256 0 0 1-.095.026H8.905v.003Z" stroke="#000" stroke-width=".4" mask="url(#b)"/><path d="M8.908 23.438h2.707V26.1h2.713v-2.663h2.71V26.1h2.715v-2.659h2.705v4.562l-.967 1.344.967 21.862H8.905l.967-21.862-.967-1.339v-4.572h.003Zm-.003-.503a.507.507 0 0 0-.505.503v4.569c0 .108.035.213.098.301l.864 1.195-.96 21.687a.5.5 0 0 0 .31.492.525.525 0 0 0 .206.043h13.54a.525.525 0 0 0 .486-.335.5.5 0 0 0 .03-.2l-.948-21.687.864-1.197a.501.501 0 0 0 .099-.3v-4.564a.5.5 0 0 0-.505-.502h-2.73a.506.506 0 0 0-.506.502v2.155h-1.692v-2.152a.5.5 0 0 0-.505-.502h-2.723a.507.507 0 0 0-.505.502v2.137h-1.69V23.44a.5.5 0 0 0-.505-.502H8.905v-.003Z" fill="#000"/><path d="M9.776 29.609h11.836" stroke="#000" stroke-width=".48" stroke-miterlimit="10"/><mask id="c" maskUnits="userSpaceOnUse" x="13.394" y="33.135" width="4" height="6" fill="#000"><path fill="#fff" d="M13.394 33.135h4v6h-4z"/><path d="M15.657 34.135a1.332 1.332 0 0 0-.908.42 1.316 1.316 0 0 0-.355.93v2.883h2.581V35.45c.007-.34-.122-.67-.358-.916a1.302 1.302 0 0 0-.905-.4h-.055Z"/></mask><path d="M15.657 34.135a1.332 1.332 0 0 0-.908.42 1.316 1.316 0 0 0-.355.93v2.883h2.581V35.45c.007-.34-.122-.67-.358-.916a1.302 1.302 0 0 0-.905-.4h-.055Z" fill="#000"/><path d="M15.657 34.135a1.332 1.332 0 0 0-.908.42 1.316 1.316 0 0 0-.355.93v2.883h2.581V35.45c.007-.34-.122-.67-.358-.916a1.302 1.302 0 0 0-.905-.4h-.055Z" stroke="#000" stroke-width=".732" stroke-linejoin="round" mask="url(#c)"/><mask id="d" maskUnits="userSpaceOnUse" x="30.192" y="25.187" width="4" height="6" fill="#000"><path fill="#fff" d="M30.192 25.187h4v6h-4z"/><path d="M32.309 26.197a1.18 1.18 0 0 0-.802.372 1.166 1.166 0 0 0-.314.823v2.536h2.273v-2.589a1.133 1.133 0 0 0-.696-1.06 1.152 1.152 0 0 0-.438-.092l-.023.01Z"/></mask><path d="M32.309 26.197a1.18 1.18 0 0 0-.802.372 1.166 1.166 0 0 0-.314.823v2.536h2.273v-2.589a1.133 1.133 0 0 0-.696-1.06 1.152 1.152 0 0 0-.438-.092l-.023.01Z" fill="#000"/><path d="M32.309 26.197a1.18 1.18 0 0 0-.802.372 1.166 1.166 0 0 0-.314.823v2.536h2.273v-2.589a1.133 1.133 0 0 0-.696-1.06 1.152 1.152 0 0 0-.438-.092l-.023.01Z" stroke="#000" stroke-width=".732" stroke-linejoin="round" mask="url(#d)"/><mask id="e" maskUnits="userSpaceOnUse" x="28.215" y="39.703" width="8" height="13" fill="#000"><path fill="#fff" d="M28.215 39.703h8v13h-8z"/><path d="M29.215 51.464v-7.23c0-1.919 1.4-3.5 3.12-3.53h.048c1.747 0 3.172 1.53 3.172 3.414v7.349h-6.34v-.003Z"/></mask><path d="M29.215 51.464v-7.23c0-1.919 1.4-3.5 3.12-3.53h.048c1.747 0 3.172 1.53 3.172 3.414v7.349h-6.34v-.003Z" fill="#000"/><path d="M29.215 51.464v-7.23c0-1.919 1.4-3.5 3.12-3.53h.048c1.747 0 3.172 1.53 3.172 3.414v7.349h-6.34v-.003Z" stroke="#000" stroke-width=".732" mask="url(#e)"/><mask id="f" fill="#fff"><path d="M32.382 40.944c1.611 0 2.915 1.416 2.915 3.161v7.086h-5.81v-6.98c0-1.758 1.264-3.249 2.87-3.264h.045l-.02-.003Zm.02-.5h-.055c-1.86.033-3.372 1.728-3.372 3.784v6.98a.514.514 0 0 0 .321.478c.063.026.13.04.2.04h5.808a.522.522 0 0 0 .52-.518v-7.103c0-2.023-1.538-3.668-3.427-3.668l.005.008Z"/></mask><path d="M32.382 40.944c1.611 0 2.915 1.416 2.915 3.161v7.086h-5.81v-6.98c0-1.758 1.264-3.249 2.87-3.264h.045l-.02-.003Zm.02-.5h-.055c-1.86.033-3.372 1.728-3.372 3.784v6.98a.514.514 0 0 0 .321.478c.063.026.13.04.2.04h5.808a.522.522 0 0 0 .52-.518v-7.103c0-2.023-1.538-3.668-3.427-3.668l.005.008Z" fill="#000" stroke="#000" stroke-width="5.858" mask="url(#f)"/><g opacity=".25"><mask id="g" fill="#fff"><path d="m37.229 18.642 2.121-.191.127 4.238-1.27 1.501h-1.95l.957-1.597.015-3.951Z"/></mask><path d="m37.229 18.642 2.121-.191.127 4.238-1.27 1.501h-1.95l.957-1.597.015-3.951Z" fill="#000" stroke="#000" stroke-width="5.858" mask="url(#g)"/></g><path d="M26.573 24.183a.255.255 0 0 1-.207-.106l-.967-1.338a.273.273 0 0 1-.048-.15v-4.57a.25.25 0 0 1 .252-.251h2.695a.253.253 0 0 1 .253.25v2.409h2.2v-2.4a.25.25 0 0 1 .252-.252h2.71a.253.253 0 0 1 .253.251v2.408h2.205v-2.408a.25.25 0 0 1 .253-.25h2.71a.254.254 0 0 1 .255.253v4.562a.25.25 0 0 1-.036.128l-.015.022-.967 1.334a.253.253 0 0 1-.21.105l-11.588.003Z" fill="#E0E0E0"/><path d="M26.573 24.183a.255.255 0 0 1-.207-.106l-.967-1.338a.273.273 0 0 1-.048-.15v-4.57a.25.25 0 0 1 .252-.251h2.695a.253.253 0 0 1 .253.25v2.409h2.2v-2.4a.25.25 0 0 1 .252-.252h2.71a.253.253 0 0 1 .253.251v2.408h2.205v-2.408a.25.25 0 0 1 .253-.25h2.71a.254.254 0 0 1 .255.253v4.562a.25.25 0 0 1-.036.128l-.015.022-.967 1.334a.253.253 0 0 1-.21.105l-11.588.003Z" fill="#000" fill-opacity=".1"/><path fill-rule="evenodd" clip-rule="evenodd" d="M26.572 23.983h.001l11.591-.003a.053.053 0 0 0 .044-.022h.001l.965-1.331.01-.014a.05.05 0 0 0 .005-.022v-4.563a.049.049 0 0 0-.016-.037.051.051 0 0 0-.038-.016h-2.711a.053.053 0 0 0-.038.016.05.05 0 0 0-.015.035v2.608h-2.605v-2.608a.05.05 0 0 0-.015-.035.053.053 0 0 0-.038-.016h-2.71a.053.053 0 0 0-.037.016.05.05 0 0 0-.015.035v2.6h-2.6V18.02a.05.05 0 0 0-.015-.036.054.054 0 0 0-.038-.015h-2.695a.054.054 0 0 0-.037.015.05.05 0 0 0-.015.036v4.568c0 .013.004.026.012.037l.965 1.336a.053.053 0 0 0 .044.023Zm-1.173-1.244a.273.273 0 0 1-.048-.15v-4.57a.25.25 0 0 1 .252-.251h2.695a.253.253 0 0 1 .253.25v2.409h2.2v-2.4a.25.25 0 0 1 .252-.252h2.71a.253.253 0 0 1 .253.251v2.408h2.205v-2.408a.25.25 0 0 1 .253-.25h2.71a.254.254 0 0 1 .255.253v4.562a.25.25 0 0 1-.036.128l-.015.022-.967 1.334a.253.253 0 0 1-.21.105l-11.588.003a.255.255 0 0 1-.207-.106l-.967-1.338Z" fill="#000"/><path d="M25.603 18.021h2.708v2.662h2.71V18.02h2.71v2.662h2.713v-2.657h2.71v4.562l-.963 1.339H26.573l-.967-1.339v-4.567h-.003Zm-.002-.514a.506.506 0 0 0-.506.502v4.56a.5.5 0 0 0 .099.298l.965 1.338a.505.505 0 0 0 .414.221h11.618a.508.508 0 0 0 .417-.21l.965-1.339a.5.5 0 0 0 .099-.299v-4.552a.5.5 0 0 0-.506-.502h-2.72a.506.506 0 0 0-.505.502v2.155h-1.69v-2.155a.5.5 0 0 0-.505-.502h-2.723a.506.506 0 0 0-.505.502v2.155h-1.69v-2.155a.5.5 0 0 0-.505-.502h-2.705l-.017-.017Z" fill="#000"/><mask id="h" maskUnits="userSpaceOnUse" x="7.4" y="11.275" width="50" height="41" fill="#000"><path fill="#fff" d="M7.4 11.275h50v41h-50z"/><path d="M32.382 12.275a.537.537 0 0 0-.401.188l-4.23 5.061h-2.133l-.018-.017a.507.507 0 0 0-.505.502v4.56a.5.5 0 0 0 .099.298l.965 1.338a.504.504 0 0 0 .18.162l.007.003v10.222h-.92v-2.009a.5.5 0 0 0-.505-.502H22.14l-.112-2.578.863-1.197a.5.5 0 0 0 .099-.3v-4.564a.5.5 0 0 0-.505-.502H20.3l-4.253-5.079a.546.546 0 0 0-.402-.186l.015.003a.52.52 0 0 0-.399.186l-4.25 5.074H8.904v-.003a.507.507 0 0 0-.505.503v4.569c0 .108.035.213.099.301l.863 1.195-.96 21.687a.5.5 0 0 0 .31.492.526.526 0 0 0 .206.043h13.54a.51.51 0 0 0 .057-.003h6.92l.06.003h5.81c.02 0 .04 0 .06-.003h6.92a.54.54 0 0 0 .034.003h13.576a.507.507 0 0 0 .505-.502v-.033l-.96-21.682.864-1.197a.5.5 0 0 0 .096-.299V23.44a.5.5 0 0 0-.505-.502H53.79l-4.233-5.057a.545.545 0 0 0-.402-.186h-.01a.52.52 0 0 0-.4.186l-4.244 5.057h-2.14l-.01-.008a.507.507 0 0 0-.506.503v4.569c0 .108.035.213.099.301l.861 1.195-.114 2.583h-2.785a.506.506 0 0 0-.505.502v2.009h-.933V24.346a.503.503 0 0 0 .139-.13l.965-1.339a.5.5 0 0 0 .098-.299v-4.552a.5.5 0 0 0-.505-.502h-2.125l-4.252-5.06a.52.52 0 0 0-.407-.19Z"/></mask><path d="M32.382 12.275a.537.537 0 0 0-.401.188l-4.23 5.061h-2.133l-.018-.017a.507.507 0 0 0-.505.502v4.56a.5.5 0 0 0 .099.298l.965 1.338a.504.504 0 0 0 .18.162l.007.003v10.222h-.92v-2.009a.5.5 0 0 0-.505-.502H22.14l-.112-2.578.863-1.197a.5.5 0 0 0 .099-.3v-4.564a.5.5 0 0 0-.505-.502H20.3l-4.253-5.079a.546.546 0 0 0-.402-.186l.015.003a.52.52 0 0 0-.399.186l-4.25 5.074H8.904v-.003a.507.507 0 0 0-.505.503v4.569c0 .108.035.213.099.301l.863 1.195-.96 21.687a.5.5 0 0 0 .31.492.526.526 0 0 0 .206.043h13.54a.51.51 0 0 0 .057-.003h6.92l.06.003h5.81c.02 0 .04 0 .06-.003h6.92a.54.54 0 0 0 .034.003h13.576a.507.507 0 0 0 .505-.502v-.033l-.96-21.682.864-1.197a.5.5 0 0 0 .096-.299V23.44a.5.5 0 0 0-.505-.502H53.79l-4.233-5.057a.545.545 0 0 0-.402-.186h-.01a.52.52 0 0 0-.4.186l-4.244 5.057h-2.14l-.01-.008a.507.507 0 0 0-.506.503v4.569c0 .108.035.213.099.301l.861 1.195-.114 2.583h-2.785a.506.506 0 0 0-.505.502v2.009h-.933V24.346a.503.503 0 0 0 .139-.13l.965-1.339a.5.5 0 0 0 .098-.299v-4.552a.5.5 0 0 0-.505-.502h-2.125l-4.252-5.06a.52.52 0 0 0-.407-.19Z" stroke="#000" stroke-width=".4" mask="url(#h)"/><path d="M42.367 51.458a.284.284 0 0 1-.194-.085.25.25 0 0 1-.066-.196l.962-21.752-.917-1.268v-.023a.25.25 0 0 1-.035-.128V23.44a.25.25 0 0 1 .253-.25h2.707a.254.254 0 0 1 .253.25v2.408h2.202v-2.408a.25.25 0 0 1 .253-.25h2.728a.254.254 0 0 1 .255.253v2.407h2.2v-2.407a.25.25 0 0 1 .252-.251h2.708a.255.255 0 0 1 .255.253v4.562a.285.285 0 0 1-.033.128l-.015.023-.927 1.268.965 21.765a.249.249 0 0 1-.137.244.255.255 0 0 1-.095.027l-13.574-.003Z" fill="#E0E0E0"/><path fill-rule="evenodd" clip-rule="evenodd" d="M42.364 51.658h-.003a.483.483 0 0 1-.332-.145l-.001-.002-.002-.002a.45.45 0 0 1-.119-.346l.96-21.677-.915-1.264v-.041a.45.45 0 0 1-.035-.175V23.44a.45.45 0 0 1 .453-.45h2.707a.453.453 0 0 1 .453.45v2.208h1.802v-2.208a.45.45 0 0 1 .453-.45h2.727a.452.452 0 0 1 .456.453v2.208h1.8v-2.208a.45.45 0 0 1 .452-.451h2.707a.453.453 0 0 1 .456.454V28.01a.485.485 0 0 1-.056.217l-.005.01-.023.035-.888 1.214.962 21.691a.45.45 0 0 1-.417.483h-.008l-13.584-.002Zm13.809-.468-.965-21.765.927-1.268.015-.023a.285.285 0 0 0 .033-.128v-4.562a.25.25 0 0 0-.157-.234.252.252 0 0 0-.098-.02H53.22a.253.253 0 0 0-.252.252v2.408h-2.2v-2.408a.25.25 0 0 0-.074-.178.25.25 0 0 0-.181-.076h-2.728a.253.253 0 0 0-.253.251v2.408H45.33v-2.408a.25.25 0 0 0-.253-.25H42.37a.253.253 0 0 0-.253.25v4.567c0 .045.012.09.035.128v.023l.917 1.268-.962 21.752a.25.25 0 0 0 .066.196.284.284 0 0 0 .194.085l13.574.003a.253.253 0 0 0 .232-.271Z" fill="#000"/><path d="M42.352 23.433h2.705v2.663h2.71v-2.658h2.728V26.1h2.71v-2.663h2.708v4.561l-.968 1.349.968 21.842H42.349l.97-21.842-.965-1.338v-4.577h-.002Zm0-.503a.506.506 0 0 0-.505.503v4.569c0 .108.035.213.098.301l.861 1.195-.96 21.692a.501.501 0 0 0 .473.535h13.576a.506.506 0 0 0 .505-.502v-.033l-.96-21.682.864-1.197a.5.5 0 0 0 .096-.299V23.44a.5.5 0 0 0-.505-.502h-2.7a.507.507 0 0 0-.505.502v2.154H51V23.44a.5.5 0 0 0-.505-.502h-2.726a.507.507 0 0 0-.505.502v2.154h-1.69V23.44a.5.5 0 0 0-.505-.502h-2.707l-.01-.008Z" fill="#000"/><path d="M43.152 29.609h11.836" stroke="#000" stroke-width=".48" stroke-miterlimit="10"/><mask id="i" maskUnits="userSpaceOnUse" x="46.832" y="33.135" width="4" height="6" fill="#000"><path fill="#fff" d="M46.832 33.135h4v6h-4z"/><path d="M49.095 34.135a1.334 1.334 0 0 0-.907.42 1.319 1.319 0 0 0-.356.93v2.883h2.571V35.45a1.291 1.291 0 0 0-.365-.92 1.307 1.307 0 0 0-.913-.395h-.03Z"/></mask><path d="M49.095 34.135a1.334 1.334 0 0 0-.907.42 1.319 1.319 0 0 0-.356.93v2.883h2.571V35.45a1.291 1.291 0 0 0-.365-.92 1.307 1.307 0 0 0-.913-.395h-.03Z" fill="#000"/><path d="M49.095 34.135a1.334 1.334 0 0 0-.907.42 1.319 1.319 0 0 0-.356.93v2.883h2.571V35.45a1.291 1.291 0 0 0-.365-.92 1.307 1.307 0 0 0-.913-.395h-.03Z" stroke="#000" stroke-width=".732" stroke-linejoin="round" mask="url(#i)"/></svg>